#!OML:ASF F:\VICON\USERDATA\INSTALL\rory3\rory3.ASF
:FULLY-SPECIFIED
:DEGREES
4214
root -9.04622 17.6208 12.4435 725.49 -72.178 -4.70119
lowerback 11.6872 8.62262 7.87711
upperback 1.61702 12.2932 -1.8258
thorax -2.68343 6.04655 -7.73008
lowerneck -16.639 12.5716 -5.93063
upperneck 46.1629 19.592 4.75854
head 19.3771 6.97999 7.01319
rclavicle 1.81391e-014 6.36111e-015
rhumerus -30.3647 -8.57592 -80.8075
rradius 41.5543
rwrist -0.325447
rhand -17.9672 5.31276
rfingers 7.12502
rthumb 8.30196 -24.5041
lclavicle 1.81391e-014 6.36111e-015
lhumerus -34.6783 15.0854 77.7321
lradius 33.8855
lwrist -3.03613
lhand -19.0122 28.7907
lfingers 7.12502
lthumb 7.29335 58.645
rfemur 1.8009 -3.82511 29.0862
rtibia 29.9463
rfoot -17.4114 -2.81272
rtoes 6.62016
lfemur -24.9714 -3.47756 -21.7647
ltibia 15.9186
lfoot 9.4271 -17.4317
ltoes -8.63182
4215
root -8.94145 17.6299 12.4184 725.307 -72.0757 -4.39877
lowerback 11.6908 8.54663 7.68443
upperback 1.6523 12.1662 -1.81736
thorax -2.71286 5.98324 -7.61096
lowerneck -16.6794 12.6819 -5.81894
upperneck 46.1288 19.7397 4.72335
head 19.3754 7.05361 7.00688
rclavicle -1.2096e-013 1.07344e-014
rhumerus -30.1831 -8.83166 -80.7653
rradius 41.6982
rwrist -0.64479
rhand -18.2952 5.29556
rfingers 7.12502
rthumb 7.98543 -24.5336
lclavicle -1.2096e-013 1.07344e-014
lhumerus -34.6184 14.7782 77.9882
lradius 33.8527
lwrist -2.90111
lhand -18.9358 28.2467
lfingers 7.12502
lthumb 7.36714 58.0984
rfemur 1.32254 -3.85936 29.0194
rtibia 29.9075
rfoot -17.5125 -2.97271
rtoes -0.86265
lfemur -25.1948 -2.81078 -21.8532
ltibia 16.0381
lfoot 8.70326 -17.3711
ltoes -8.73101
4216
root -8.8354 17.6428 12.3946 725.396 -71.9365 -4.46829
lowerback 11.8112 8.45294 7.65384
upperback 1.68702 12.0445 -1.79045
thorax -2.77533 5.91889 -7.5781
lowerneck -16.6489 12.763 -5.70576
upperneck 46.0175 19.8259 4.67512
head 19.3126 7.11433 6.96637
rclavicle -2.41026e-015 -4.57205e-015
rhumerus -30.0162 -9.14803 -80.7119
rradius 41.7918
rwrist -0.835759
rhand -18.19 5.47403
rfingers 7.12502
rthumb 8.08697 -24.3512
lclavicle -2.41026e-015 -4.57205e-015
lhumerus -34.6143 14.2908 78.3054
lradius 33.9608
lwrist -2.57896
lhand -19.2157 27.6486
lfingers 7.12502
lthumb 7.09692 57.5096
rfemur 0.970972 -3.82201 29.0847
rtibia 29.821
rfoot -17.5516 -3.15561
rtoes -2.80629
lfemur -25.4628 -2.27246 -21.6896
ltibia 16.5311
lfoot 7.98488 -17.7076
ltoes -5.40579
4217
root -8.72938 17.6567 12.3747 725.387 -71.7005 -4.49689
lowerback 12.0107 8.33146 7.67703
upperback 1.72248 11.8969 -1.78961
thorax -2.86762 5.83954 -7.61204
lowerneck -16.5977 12.8122 -5.4762
upperneck 45.8005 19.8757 4.47771
head 19.231 7.166 6.82722
rclavicle -6.25426e-014 7.05686e-015
rhumerus -29.9771 -9.38514 -80.6604
rradius 41.9514
rwrist -0.97305
rhand -18.2141 5.11859
rfingers 7.12502
rthumb 8.0637 -24.7076
lclavicle -6.25426e-014 7.05686e-015
lhumerus -34.5341 13.6845 78.6223
lradius 34.106
lwrist -2.09332
lhand -19.1926 27.8527
lfingers 7.12502
lthumb 7.11921 57.7129
rfemur 0.695204 -3.89286 29.1293
rtibia 29.7115
rfoot -17.5952 -3.3342
rtoes -0.27419
lfemur -25.7441 -2.74161 -21.2235
ltibia 17.3384
lfoot 6.78449 -17.5974
ltoes -2.61314
4218
root -8.62622 17.6644 12.3547 725.397 -71.5085 -4.55577
lowerback 12.1657 8.18898 7.70065
upperback 1.77292 11.7181 -1.78007
thorax -2.92733 5.74703 -7.62438
lowerneck -16.5389 12.9122 -5.30107
upperneck 45.6686 19.9962 4.35691
head 19.1716 7.23967 6.7482
rclavicle 1.50331e-013 -2.42517e-014
rhumerus -29.9347 -9.7049 -80.617
rradius 42.0207
rwrist -0.83304
rhand -18.1471 4.75233
rfingers 7.12502
rthumb 8.12835 -25.0713
lclavicle 1.50331e-013 -2.42517e-014
lhumerus -34.3883 13.0715 78.9273
lradius 34.2288
lwrist -1.49602
lhand -18.8443 28.611
lfingers 7.12502
lthumb 7.45541 58.4596
rfemur 0.384717 -4.12509 29.1487
rtibia 29.6274
rfoot -17.5607 -3.47216
rtoes 3.09167
lfemur -25.9672 -3.56984 -20.6639
ltibia 18.3153
lfoot 4.71339 -17.365
ltoes -4.5117
4219
root -8.52518 17.6752 12.3324 725.351 -71.3579 -4.54066
lowerback 12.2958 8.08482 7.65156
upperback 1.83843 11.5783 -1.7622
thorax -2.96675 5.67599 -7.58607
lowerneck -16.4929 12.9915 -5.26805
upperneck 45.5137 20.0942 4.32206
head 19.062 7.30127 6.71789
rclavicle -4.91495e-014 1.09332e-015
rhumerus -29.8434 -10.2129 -80.5664
rradius 41.9909
rwrist -0.596028
rhand -17.7934 5.5011
rfingers 7.12502
rthumb 8.46974 -24.3091
lclavicle -4.91495e-014 1.09332e-015
lhumerus -34.1613 12.5667 79.2276
lradius 34.2282
lwrist -1.18249
lhand -18.6401 28.5703
lfingers 7.12502
lthumb 7.65258 58.4118
rfemur 0.0286666 -4.17995 29.1686
rtibia 29.6063
rfoot -17.4503 -3.59518
rtoes 5.20806
lfemur -26.1101 -4.47996 -20.0826
ltibia 19.3323
lfoot 2.11886 -16.9333
ltoes -9.36705
